    <svg xmlns="http://www.w3.org/2000/svg" viewBox="0.0019554495811462402 0.020970821380615234 132.09361267089844 90.3534927368164">
        <title>资源 15</title>
        <path d="M115.54 8.65c-4.49.94-8.66 1.22-12.35 2.68-11.3 4.5-17.45 13.26-18 25.3-.54 11.64 0 23.33-.26 35a18 18 0 0 1-10.27 16.52C68 91.58 61.4 91 55.31 86.71a18 18 0 0 1-7.94-15c-.19-11.95-.39-23.91 0-35.85.5-14.09 7.94-24.17 20.23-30.36 14.64-7.37 29.51-7.42 44.1.55a43.51 43.51 0 0 1 3.84 2.6z" fill="#ff0069"></path>
        <path d="M58.65 3.44C56 5.37 53.45 7 51.15 8.89 42.53 16 38 25.1 38 36.37V70a20.63 20.63 0 0 1-4.06 12.78 18.75 18.75 0 0 1-20.56 6.67 18.82 18.82 0 0 1-13-17c-.27-12.64-.7-25.3.01-37.89.86-15.08 9.86-24.87 23.27-30.65a46.36 46.36 0 0 1 33.1-1.44 13.71 13.71 0 0 1 1.89.97z" fill="#ffa217"></path>
        <path d="M132 55v17.09c-.11 9.83-7.57 17.48-17.58 18.13-9.72.64-18.61-6.08-19.52-15.63-.77-8-.59-16.11-.56-24.18a138.15 138.15 0 0 1 .83-17c1.42-11 10.3-17.79 21.28-16.66A16.22 16.22 0 0 1 130.6 30.4c1.15 6.77 1 13.75 1.46 20.64.08 1.32 0 2.66 0 4z" fill="#a421ba"></path>
    </svg>
